<svg width="370" height="160" viewBox="0 0 370 160" fill="none" xmlns="http://www.w3.org/2000/svg">
<path fill-rule="evenodd" clip-rule="evenodd" d="M60.6242 0.359142C58.0689 0.815827 56.7372 1.26277 54.2669 2.49287C46.9323 6.1454 41.6934 13.3352 40.545 21.3255C40.381 22.4672 40.3066 24.6045 40.3703 26.3619L40.4802 29.4149L38.2683 28.2217C33.7708 25.7957 30.7104 25.0548 25.2426 25.0688C21.6693 25.0779 20.9467 25.1494 18.9499 25.6902C6.0893 29.1742 -1.69489 41.2759 0.314498 54.6616C1.80622 64.5991 9.00508 72.6807 18.5937 75.1822C19.7692 75.489 21.2972 75.8119 21.9894 75.8998L23.248 76.0597L22.0951 77.2834C19.0665 80.4978 16.9106 84.894 15.9843 89.7444C15.4148 92.7256 15.5815 98.3113 16.321 101.03C18.2354 108.069 22.991 114.109 29.1607 117.337C33.2417 119.472 36.5545 120.288 41.1525 120.291C46.0974 120.294 49.4216 119.377 53.7431 116.82C55.8273 115.586 59.6715 112.103 61.4109 109.871L62.1518 108.921L62.1677 150.959L60.7491 148.631C58.7117 145.288 57.443 143.574 55.387 141.387C50.246 135.918 43.3948 132.152 35.5722 130.496C32.7974 129.908 25.2566 129.907 22.087 130.494C18.4406 131.17 17.0502 131.623 17.0502 132.137C17.0502 132.826 18.6507 136.953 19.8411 139.335C21.775 143.204 23.8036 145.999 27.0108 149.213C32.3218 154.537 38.2702 157.818 45.5738 159.455C47.7237 159.936 48.661 160.006 52.9068 160C57.9642 159.992 58.8124 159.887 62.8523 158.77L65.0802 158.154L67.2454 158.767C71.2387 159.897 72.0608 160.001 76.8903 159.989C80.7649 159.98 81.9278 159.891 84.0141 159.443C91.6845 157.799 97.7448 154.519 103.133 149.096C107.439 144.762 110.167 140.408 112.26 134.528C113.351 131.466 113.442 131.69 110.847 131.059C107.392 130.218 105.906 130.068 101.111 130.074C97.2877 130.078 95.8102 130.173 94.2249 130.516C83.6714 132.804 74.7467 139.26 69.1495 148.655L67.9855 150.609L67.9235 140.279C67.8896 134.598 67.8896 125.303 67.9235 119.624L67.9855 109.298L69.6537 111.248C71.9665 113.951 74.8009 116.158 77.9543 117.712C80.9359 119.181 83.3585 119.858 87.0232 120.244C98 121.403 109.028 114.222 113.002 103.328C114.218 99.9936 114.486 98.3563 114.48 94.3079C114.475 91.1158 114.392 90.3153 113.86 88.3018C112.825 84.3858 110.344 79.7629 107.795 76.9997L106.898 76.0279L107.982 75.8787C118.238 74.467 126.649 66.9949 129.369 56.879C130.019 54.4606 130.255 49.7593 129.864 47.0006C129.061 41.3389 126.739 36.5506 122.866 32.5673C118.311 27.8819 112.586 25.3226 105.933 24.9968C100.807 24.7459 96.3136 25.7177 91.8755 28.0373C90.6488 28.6783 89.6274 29.203 89.6063 29.203C89.5852 29.203 89.5652 27.5723 89.5621 25.5794C89.5557 21.4995 89.2074 19.4463 87.9526 16.0943C85.5443 9.66011 79.5674 3.75386 73.0605 1.37753C69.3402 0.0188847 64.6687 -0.363665 60.6242 0.359142ZM61.8115 29.3432C56.2607 30.1456 52.9768 31.0723 49.4636 32.828C39.4751 37.8196 32.5633 46.8074 30.3245 57.7161C29.5371 61.552 29.5357 68.0392 30.3212 71.735C31.8927 79.1292 35.2312 85.3975 40.3214 90.5121C41.5621 91.7588 43.4855 93.3805 44.5957 94.1161C46.8138 95.5862 50.0264 97.3882 50.4379 97.3935C50.6003 97.3956 50.7523 96.5625 50.838 95.1989C51.2248 89.0415 55.0375 83.8792 63.9024 77.5089C69.0282 73.8255 71.938 71.4568 74.485 68.8937C79.7063 63.6394 83.0051 57.851 84.1305 51.9693C84.6234 49.3931 84.641 43.6088 84.1613 41.7965C83.9711 41.078 83.8607 40.445 83.9158 40.3899C84.2651 40.0403 87.6622 44.366 88.7825 46.5867C89.1611 47.3368 89.7003 48.7846 89.9812 49.8039C90.4433 51.4819 90.4778 52.0277 90.3457 55.5778C90.1368 61.1951 90.5345 62.4003 93.9138 66.3888C96.3013 69.2068 97.1704 71.0642 96.689 72.3198C96.4613 72.9133 94.9945 73.5489 93.1352 73.8597C89.9862 74.3862 89.2116 75.4341 90.1712 77.8703C90.8219 79.5215 90.8024 80.5598 90.1054 81.3993C89.7671 81.807 89.488 82.5381 89.3954 83.259C89.289 84.0876 89.0893 84.555 88.7353 84.8035C87.6226 85.5845 86.8814 86.4394 86.7532 87.0898C86.1726 90.0388 85.8834 90.5708 84.556 91.1329C83.4893 91.5846 81.8128 91.5376 78.2108 90.9547C74.2872 90.3196 72.5011 90.4192 70.4318 91.3881C68.6772 92.2098 67.5021 93.1761 66.3523 94.7434C65.4228 96.0106 63.9508 98.8514 63.6946 99.8731L63.522 100.562L66.3473 100.412C80.1777 99.6766 91.2298 92.3312 97.0678 79.9941C99.5015 74.8512 100.396 70.8036 100.398 64.9325C100.399 60.6265 99.8814 57.2877 98.6355 53.5615C96.4741 47.0983 92.7462 41.6387 87.6947 37.5388C82.7052 33.489 77.051 30.8192 71.31 29.8025C69.2115 29.4309 63.2123 29.1407 61.8115 29.3432ZM60.8432 37.1612C52.7536 38.5902 45.2857 44.5093 42.6511 51.5801C41.706 54.1163 41.4538 58.0979 42.0814 60.5736C43.9358 67.8895 50.3177 72.6854 58.1991 72.6854C64.1244 72.6854 68.804 69.9133 70.9804 65.1138C71.6835 63.5629 71.8236 61.2351 71.3197 59.4803C69.7565 54.0393 64.0636 51.1421 59.4251 53.4272C56.5703 54.8334 55.0069 57.9406 56.3048 59.6279C56.8125 60.2877 57.7481 60.805 58.4344 60.805C58.8043 60.805 59.8119 60.4308 60.6732 59.9734C61.5344 59.516 62.5828 59.1417 63.0026 59.1417C64.5255 59.1417 65.6624 60.7135 65.4245 62.4896C65.2134 64.065 64.3011 65.1746 62.4795 66.0721C60.9667 66.8174 60.7254 66.864 58.3736 66.864C56.581 66.864 55.5295 66.7433 54.6523 66.437C50.9166 65.1326 48.5064 61.8619 48.2262 57.7161C47.7847 51.1885 53.0348 45.4778 61.4606 43.3201C62.8405 42.967 64.0038 42.871 66.6795 42.8897C70.5812 42.9173 72.1024 43.2357 76.2684 44.8961C79.0457 46.0029 79.8994 46.0423 80.4322 45.0876C80.749 44.5205 80.7398 44.3613 80.3394 43.4726C79.31 41.1882 75.3691 38.4493 71.7374 37.4939C69.2861 36.849 63.5944 36.6753 60.8432 37.1612Z" fill="#5E3156"/>
<path d="M214.856 24.8129C218.67 24.8129 222.037 25.5583 224.957 27.049C227.937 28.5398 230.261 30.8356 231.93 33.9363C233.598 36.9775 234.433 40.9131 234.433 45.7432V73.1136H223.259V47.1743C223.259 42.9405 222.335 39.7801 220.488 37.6931C218.641 35.606 215.989 34.5625 212.532 34.5625C210.089 34.5625 207.914 35.0991 206.007 36.1725C204.159 37.2458 202.699 38.826 201.627 40.9131C200.614 43.0002 200.107 45.6537 200.107 48.8738V73.1136H188.933V47.1743C188.933 42.9405 188.01 39.7801 186.162 37.6931C184.315 35.606 181.663 34.5625 178.207 34.5625C175.763 34.5625 173.588 35.0991 171.681 36.1725C169.834 37.2458 168.374 38.826 167.301 40.9131C166.288 43.0002 165.781 45.6537 165.781 48.8738V73.1136H154.608V25.3496H165.245V38.0508L163.368 34.2941C164.977 31.1933 167.301 28.8379 170.34 27.2279C173.439 25.6179 176.955 24.8129 180.888 24.8129C185.358 24.8129 189.231 25.9161 192.509 28.1224C195.846 30.3287 198.051 33.668 199.124 38.1403L194.744 36.6197C196.293 33.0419 198.856 30.1796 202.431 28.0329C206.007 25.8862 210.149 24.8129 214.856 24.8129Z" fill="#5E3156"/>
<path d="M278.121 73.1136V63.4534L277.495 61.3962V44.4909C277.495 41.2113 276.512 38.677 274.545 36.8881C272.578 35.0395 269.599 34.1152 265.606 34.1152C262.924 34.1152 260.272 34.5327 257.65 35.3675C255.088 36.2023 252.913 37.3651 251.125 38.8559L246.745 30.7163C249.307 28.7485 252.347 27.2876 255.863 26.3335C259.438 25.3197 263.133 24.8129 266.947 24.8129C273.86 24.8129 279.193 26.4825 282.948 29.8218C286.762 33.1015 288.669 38.1999 288.669 45.1171V73.1136H278.121ZM263.103 73.7397C259.528 73.7397 256.399 73.1434 253.717 71.9508C251.036 70.6985 248.95 68.9991 247.46 66.8524C246.03 64.646 245.315 62.1714 245.315 59.4284C245.315 56.745 245.94 54.33 247.192 52.1833C248.503 50.0366 250.618 48.3371 253.538 47.0849C256.459 45.8326 260.332 45.2065 265.159 45.2065H279.015V52.6305H265.964C262.15 52.6305 259.587 53.2566 258.276 54.5089C256.965 55.7015 256.31 57.1922 256.31 58.9811C256.31 61.0086 257.114 62.6186 258.723 63.8112C260.332 65.0038 262.567 65.6001 265.427 65.6001C268.169 65.6001 270.612 64.974 272.757 63.7218C274.962 62.4695 276.541 60.621 277.495 58.1761L279.372 64.8846C278.299 67.6872 276.363 69.8637 273.562 71.4141C270.82 72.9645 267.334 73.7397 263.103 73.7397Z" fill="#5E3156"/>
<path d="M303.009 73.1136V25.3496H314.182V73.1136H303.009ZM308.64 17.4783C306.554 17.4783 304.826 16.8224 303.456 15.5105C302.145 14.1987 301.489 12.6185 301.489 10.7699C301.489 8.86174 302.145 7.28153 303.456 6.02929C304.826 4.71742 306.554 4.06149 308.64 4.06149C310.726 4.06149 312.424 4.68761 313.735 5.93985C315.106 7.13246 315.791 8.65303 315.791 10.5016C315.791 12.4694 315.136 14.139 313.825 15.5105C312.514 16.8224 310.786 17.4783 308.64 17.4783Z" fill="#5E3156"/>
<path d="M358.257 73.1136V63.4534L357.631 61.3962V44.4909C357.631 41.2113 356.648 38.677 354.682 36.8881C352.715 35.0395 349.735 34.1152 345.743 34.1152C343.061 34.1152 340.409 34.5327 337.787 35.3675C335.224 36.2023 333.049 37.3651 331.261 38.8559L326.881 30.7163C329.444 28.7485 332.483 27.2876 335.999 26.3335C339.575 25.3197 343.269 24.8129 347.083 24.8129C353.996 24.8129 359.33 26.4825 363.084 29.8218C366.898 33.1015 368.805 38.1999 368.805 45.1171V73.1136H358.257ZM343.24 73.7397C339.664 73.7397 336.535 73.1434 333.854 71.9508C331.172 70.6985 329.086 68.9991 327.596 66.8524C326.166 64.646 325.451 62.1714 325.451 59.4284C325.451 56.745 326.077 54.33 327.328 52.1833C328.639 50.0366 330.755 48.3371 333.675 47.0849C336.595 45.8326 340.469 45.2065 345.296 45.2065H359.151V52.6305H346.1C342.286 52.6305 339.724 53.2566 338.413 54.5089C337.102 55.7015 336.446 57.1922 336.446 58.9811C336.446 61.0086 337.251 62.6186 338.86 63.8112C340.469 65.0038 342.703 65.6001 345.564 65.6001C348.305 65.6001 350.748 64.974 352.894 63.7218C355.099 62.4695 356.678 60.621 357.631 58.1761L359.509 64.8846C358.436 67.6872 356.499 69.8637 353.698 71.4141C350.957 72.9645 347.471 73.7397 343.24 73.7397Z" fill="#5E3156"/>
<path d="M172.294 100.718V116.19H169.365V108.126L169.529 103.601H169.482L165.195 116.19H162.547L158.283 103.601H158.237L158.401 108.126V116.19H155.472V100.718H160.158L162.946 109.158L163.93 112.651H163.977L164.984 109.181L167.749 100.718H172.294Z" fill="#5E3156"/>
<path d="M189.224 100.718V110.095C189.224 112.205 188.662 113.791 187.537 114.854C186.413 115.901 184.773 116.425 182.617 116.425C180.462 116.425 178.822 115.901 177.697 114.854C176.573 113.791 176.011 112.205 176.011 110.095V100.718H179.244V109.955C179.244 111.252 179.517 112.213 180.064 112.838C180.626 113.463 181.477 113.776 182.617 113.776C183.758 113.776 184.601 113.463 185.148 112.838C185.694 112.213 185.968 111.252 185.968 109.955V100.718H189.224Z" fill="#5E3156"/>
<path d="M196.182 113.588H204.335V116.19H192.949V100.718H196.182V113.588Z" fill="#5E3156"/>
<path d="M220.303 100.718V116.19H217.07V100.718H220.303ZM210.253 100.718V116.19H207.019V100.718H210.253ZM218.757 107.071V109.673H208.636V107.071H218.757Z" fill="#5E3156"/>
<path d="M224.339 116.19V100.718H235.936V103.32H227.572V107.165H234.156V109.65H227.572V113.588H236.264V116.19H224.339Z" fill="#5E3156"/>
<path d="M245.983 100.718C247.732 100.718 249.107 101.14 250.106 101.984C251.106 102.828 251.606 103.961 251.606 105.383C251.606 106.899 251.106 108.063 250.106 108.876C249.107 109.673 247.74 110.072 246.006 110.072L245.678 110.259H242.351V116.19H239.165V100.718H245.983ZM245.608 107.798C246.514 107.798 247.185 107.618 247.623 107.259C248.076 106.884 248.302 106.313 248.302 105.547C248.302 104.781 248.076 104.219 247.623 103.859C247.185 103.484 246.514 103.297 245.608 103.297H242.351V107.798H245.608ZM247.506 108.478L252.519 116.19H248.888L244.741 109.415L247.506 108.478Z" fill="#5E3156"/>
<path d="M268.225 100.718C270.646 100.718 272.52 101.39 273.848 102.734C275.175 104.063 275.839 105.969 275.839 108.454C275.839 110.924 275.175 112.83 273.848 114.174C272.52 115.518 270.646 116.19 268.225 116.19H262.25V100.718H268.225ZM268.061 113.612C269.529 113.612 270.63 113.174 271.364 112.299C272.114 111.408 272.489 110.127 272.489 108.454C272.489 106.782 272.114 105.508 271.364 104.633C270.63 103.742 269.529 103.297 268.061 103.297H265.484V113.612H268.061Z" fill="#5E3156"/>
<path d="M279.09 116.19V100.718H290.687V103.32H282.323V107.165H288.906V109.65H282.323V113.588H291.015V116.19H279.09Z" fill="#5E3156"/>
<path d="M313.838 116.19H310.488L309.199 112.416H303.272L301.983 116.19H298.68L304.326 100.718H308.192L313.838 116.19ZM303.998 110.025H308.473L306.224 103.273L303.998 110.025Z" fill="#5E3156"/>
<path d="M322.621 100.718C323.808 100.718 324.823 100.921 325.667 101.327C326.51 101.718 327.159 102.289 327.611 103.039C328.08 103.773 328.314 104.664 328.314 105.711C328.314 106.758 328.08 107.657 327.611 108.407C327.159 109.142 326.51 109.712 325.667 110.119C324.823 110.509 323.808 110.705 322.621 110.705H319.365V116.19H316.132V100.718H322.621ZM322.129 108.149C323.098 108.149 323.824 107.946 324.308 107.54C324.792 107.118 325.034 106.508 325.034 105.711C325.034 104.899 324.792 104.289 324.308 103.883C323.824 103.476 323.098 103.273 322.129 103.273H319.365V108.149H322.129Z" fill="#5E3156"/>
<path d="M337.955 100.484C339.486 100.484 340.805 100.804 341.914 101.445C343.023 102.085 343.874 103 344.468 104.188C345.077 105.375 345.382 106.798 345.382 108.454C345.382 110.111 345.077 111.533 344.468 112.721C343.874 113.909 343.023 114.823 341.914 115.464C340.805 116.105 339.486 116.425 337.955 116.425C336.424 116.425 335.097 116.105 333.972 115.464C332.863 114.823 332.004 113.909 331.395 112.721C330.801 111.533 330.505 110.111 330.505 108.454C330.505 106.798 330.801 105.375 331.395 104.188C332.004 103 332.863 102.085 333.972 101.445C335.097 100.804 336.424 100.484 337.955 100.484ZM337.955 103.133C337.08 103.133 336.338 103.336 335.729 103.742C335.12 104.148 334.651 104.75 334.323 105.547C334.011 106.329 333.855 107.298 333.855 108.454C333.855 109.595 334.011 110.564 334.323 111.361C334.651 112.158 335.12 112.76 335.729 113.166C336.338 113.573 337.08 113.776 337.955 113.776C338.814 113.776 339.548 113.573 340.157 113.166C340.766 112.76 341.227 112.158 341.539 111.361C341.867 110.564 342.031 109.595 342.031 108.454C342.031 107.298 341.867 106.329 341.539 105.547C341.227 104.75 340.766 104.148 340.157 103.742C339.548 103.336 338.814 103.133 337.955 103.133Z" fill="#5E3156"/>
<path d="M351.876 100.718V116.19H348.643V100.718H351.876Z" fill="#5E3156"/>
<path d="M362.573 100.484C364.104 100.484 365.424 100.804 366.533 101.445C367.642 102.085 368.493 103 369.086 104.188C369.695 105.375 370 106.798 370 108.454C370 110.111 369.695 111.533 369.086 112.721C368.493 113.909 367.642 114.823 366.533 115.464C365.424 116.105 364.104 116.425 362.573 116.425C361.042 116.425 359.715 116.105 358.59 115.464C357.481 114.823 356.622 113.909 356.013 112.721C355.42 111.533 355.123 110.111 355.123 108.454C355.123 106.798 355.42 105.375 356.013 104.188C356.622 103 357.481 102.085 358.59 101.445C359.715 100.804 361.042 100.484 362.573 100.484ZM362.573 103.133C361.698 103.133 360.957 103.336 360.347 103.742C359.738 104.148 359.27 104.75 358.942 105.547C358.629 106.329 358.473 107.298 358.473 108.454C358.473 109.595 358.629 110.564 358.942 111.361C359.27 112.158 359.738 112.76 360.347 113.166C360.957 113.573 361.698 113.776 362.573 113.776C363.432 113.776 364.166 113.573 364.775 113.166C365.385 112.76 365.845 112.158 366.158 111.361C366.486 110.564 366.65 109.595 366.65 108.454C366.65 107.298 366.486 106.329 366.158 105.547C365.845 104.75 365.385 104.148 364.775 103.742C364.166 103.336 363.432 103.133 362.573 103.133Z" fill="#5E3156"/>
<path d="M155.472 143.736V128.264H167.069V130.866H158.705V134.711H165.289V137.196H158.705V141.134H167.397V143.736H155.472Z" fill="#5E3156"/>
<path d="M180.692 128.264V143.736H177.459V128.264H180.692Z" fill="#5E3156"/>
<path d="M197.996 128.264V143.736H194.294L188.882 134.64L187.547 132.108H187.523L187.617 134.781V143.736H184.712V128.264H188.39L193.802 137.336L195.138 139.892H195.184L195.091 137.219V128.264H197.996Z" fill="#5E3156"/>
<path d="M213.605 130.866H205.265V134.804H211.848V137.407H205.265V143.736H202.032V128.264H213.605V130.866Z" fill="#5E3156"/>
<path d="M222.894 128.029C224.425 128.029 225.745 128.35 226.853 128.99C227.962 129.631 228.814 130.546 229.407 131.733C230.016 132.921 230.321 134.343 230.321 136C230.321 137.657 230.016 139.079 229.407 140.267C228.814 141.454 227.962 142.369 226.853 143.01C225.745 143.65 224.425 143.971 222.894 143.971C221.363 143.971 220.036 143.65 218.911 143.01C217.802 142.369 216.943 141.454 216.334 140.267C215.741 139.079 215.444 137.657 215.444 136C215.444 134.343 215.741 132.921 216.334 131.733C216.943 130.546 217.802 129.631 218.911 128.99C220.036 128.35 221.363 128.029 222.894 128.029ZM222.894 130.678C222.019 130.678 221.277 130.882 220.668 131.288C220.059 131.694 219.591 132.296 219.263 133.093C218.95 133.874 218.794 134.843 218.794 136C218.794 137.141 218.95 138.11 219.263 138.907C219.591 139.704 220.059 140.306 220.668 140.712C221.277 141.118 222.019 141.322 222.894 141.322C223.753 141.322 224.487 141.118 225.096 140.712C225.705 140.306 226.166 139.704 226.479 138.907C226.807 138.11 226.971 137.141 226.971 136C226.971 134.843 226.807 133.874 226.479 133.093C226.166 132.296 225.705 131.694 225.096 131.288C224.487 130.882 223.753 130.678 222.894 130.678Z" fill="#5E3156"/>
<path d="M240.4 128.264C242.149 128.264 243.524 128.686 244.524 129.53C245.523 130.374 246.023 131.507 246.023 132.929C246.023 134.445 245.523 135.609 244.524 136.422C243.524 137.219 242.157 137.618 240.424 137.618L240.096 137.805H236.769V143.736H233.582V128.264H240.4ZM240.025 135.344C240.931 135.344 241.603 135.164 242.04 134.804C242.493 134.429 242.72 133.859 242.72 133.093C242.72 132.327 242.493 131.765 242.04 131.405C241.603 131.03 240.931 130.842 240.025 130.842H236.769V135.344H240.025ZM241.923 136.023L246.937 143.736H243.305L239.158 136.961L241.923 136.023Z" fill="#5E3156"/>
<path d="M266.328 128.264V143.736H263.4V135.672L263.564 131.147H263.517L259.229 143.736H256.582L252.318 131.147H252.271L252.435 135.672V143.736H249.507V128.264H254.192L256.98 136.703L257.964 140.196H258.011L259.019 136.727L261.783 128.264H266.328Z" fill="#5E3156"/>
<path d="M283.774 143.736H280.424L279.135 139.962H273.208L271.919 143.736H268.616L274.262 128.264H278.128L283.774 143.736ZM273.934 137.571H278.409L276.16 130.819L273.934 137.571Z" fill="#5E3156"/>
<path d="M298.733 139.47C298.436 140.47 297.968 141.306 297.327 141.978C296.687 142.65 295.929 143.15 295.055 143.478C294.18 143.807 293.22 143.971 292.173 143.971C290.642 143.971 289.315 143.65 288.19 143.01C287.081 142.369 286.222 141.454 285.613 140.267C285.02 139.079 284.723 137.657 284.723 136C284.723 134.343 285.02 132.921 285.613 131.733C286.222 130.546 287.081 129.631 288.19 128.99C289.315 128.35 290.627 128.029 292.126 128.029C293.188 128.029 294.149 128.178 295.008 128.475C295.867 128.756 296.593 129.194 297.187 129.788C297.796 130.381 298.241 131.132 298.522 132.038L295.594 133.281C295.328 132.343 294.922 131.679 294.375 131.288C293.829 130.882 293.126 130.678 292.267 130.678C291.423 130.678 290.681 130.882 290.041 131.288C289.416 131.694 288.932 132.296 288.588 133.093C288.245 133.874 288.073 134.843 288.073 136C288.073 137.141 288.229 138.11 288.542 138.907C288.87 139.704 289.346 140.306 289.971 140.712C290.596 141.118 291.361 141.322 292.267 141.322C293.11 141.322 293.836 141.095 294.446 140.642C295.07 140.189 295.508 139.501 295.758 138.579L298.733 139.47ZM290.392 143.549L291.353 142.939C292.478 143.158 293.29 143.517 293.79 144.018C294.305 144.518 294.563 145.151 294.563 145.916C294.563 146.76 294.274 147.448 293.696 147.979C293.134 148.511 292.376 148.777 291.423 148.777C290.877 148.777 290.416 148.706 290.041 148.566C289.682 148.441 289.369 148.284 289.104 148.097L289.666 146.385C289.869 146.51 290.08 146.62 290.299 146.714C290.533 146.807 290.814 146.854 291.142 146.854C291.548 146.854 291.884 146.729 292.15 146.479C292.415 146.229 292.548 145.877 292.548 145.424C292.548 145.033 292.392 144.697 292.079 144.416C291.767 144.135 291.205 143.846 290.392 143.549Z" fill="#5E3156"/>
<path d="M314.913 143.736H311.563L310.274 139.962H304.347L303.058 143.736H299.755L305.401 128.264H309.267L314.913 143.736ZM305.073 137.571H309.548L307.299 130.819L305.073 137.571ZM311.797 123.153C311.766 123.935 311.625 124.591 311.376 125.122C311.141 125.638 310.821 126.029 310.415 126.295C310.009 126.545 309.54 126.67 309.009 126.67C308.572 126.67 308.197 126.599 307.885 126.459C307.572 126.302 307.299 126.138 307.065 125.966C306.846 125.779 306.627 125.615 306.409 125.474C306.206 125.318 305.987 125.24 305.753 125.24C305.456 125.24 305.229 125.365 305.073 125.615C304.933 125.849 304.831 126.201 304.769 126.67H302.801C302.863 125.497 303.144 124.622 303.644 124.044C304.159 123.45 304.847 123.153 305.706 123.153C306.128 123.153 306.487 123.231 306.783 123.388C307.096 123.528 307.361 123.692 307.58 123.88C307.799 124.067 308.002 124.232 308.189 124.372C308.392 124.513 308.611 124.583 308.845 124.583C309.158 124.583 309.384 124.466 309.525 124.232C309.681 123.981 309.79 123.622 309.853 123.153H311.797Z" fill="#5E3156"/>
<path d="M323.312 128.029C324.843 128.029 326.162 128.35 327.271 128.99C328.38 129.631 329.232 130.546 329.825 131.733C330.434 132.921 330.739 134.343 330.739 136C330.739 137.657 330.434 139.079 329.825 140.267C329.232 141.454 328.38 142.369 327.271 143.01C326.162 143.65 324.843 143.971 323.312 143.971C321.781 143.971 320.454 143.65 319.329 143.01C318.22 142.369 317.361 141.454 316.752 140.267C316.158 139.079 315.862 137.657 315.862 136C315.862 134.343 316.158 132.921 316.752 131.733C317.361 130.546 318.22 129.631 319.329 128.99C320.454 128.35 321.781 128.029 323.312 128.029ZM323.312 130.678C322.437 130.678 321.695 130.882 321.086 131.288C320.477 131.694 320.009 132.296 319.681 133.093C319.368 133.874 319.212 134.843 319.212 136C319.212 137.141 319.368 138.11 319.681 138.907C320.009 139.704 320.477 140.306 321.086 140.712C321.695 141.118 322.437 141.322 323.312 141.322C324.171 141.322 324.905 141.118 325.514 140.712C326.123 140.306 326.584 139.704 326.897 138.907C327.225 138.11 327.389 137.141 327.389 136C327.389 134.843 327.225 133.874 326.897 133.093C326.584 132.296 326.123 131.694 325.514 131.288C324.905 130.882 324.171 130.678 323.312 130.678Z" fill="#5E3156"/>
</svg>
